<?xml version="1.0" encoding="utf-8"?>
<!-- Generator: Adobe Illustrator 26.0.0, SVG Export Plug-In . SVG Version: 6.00 Build 0)  -->
<svg version="1.1" id="Layer_2" xmlns="http://www.w3.org/2000/svg" xmlns:xlink="http://www.w3.org/1999/xlink" x="0px" y="0px"
	 viewBox="0 0 2560 994.8" style="enable-background:new 0 0 2560 994.8;" xml:space="preserve">
<style type="text/css">
	.st0{fill:url(#SVGID_1_);}
	.st1{fill:url(#SVGID_00000098917742346609934680000007055978034111840144_);}
	.st2{fill:url(#SVGID_00000163777554368347629720000000238868015493782719_);}
	.st3{fill:#B4CCD6;}
	.st4{fill:none;}
</style>
<g>
	<radialGradient id="SVGID_1_" cx="30.6471" cy="259.1541" r="647.8927" gradientUnits="userSpaceOnUse">
		<stop  offset="0" style="stop-color:#DCEBF3"/>
		<stop  offset="1" style="stop-color:#FFFFFF;stop-opacity:0"/>
	</radialGradient>
	<path class="st0" d="M2157.5,226.3c-11.5-4.7-123.8-25.5-258.7-68.5s-322.2-40-514.2-56.1s-436.5,32.9-581,47
		s-319.1,85.4-395.3,104.4s-181,71.2-181,71.2S49.8,404.1,0,473.3v343.1v176.5h2560V442.2C2560,442.2,2274.1,274.3,2157.5,226.3z"/>
	
		<radialGradient id="SVGID_00000180333704106632333460000016244721295533958547_" cx="2368.5293" cy="212.5659" r="777.1418" gradientUnits="userSpaceOnUse">
		<stop  offset="0" style="stop-color:#DCEBF3"/>
		<stop  offset="1" style="stop-color:#FFFFFF;stop-opacity:0"/>
	</radialGradient>
	<path style="fill:url(#SVGID_00000180333704106632333460000016244721295533958547_);" d="M2157.5,226.3
		c-11.5-4.7-123.8-25.5-258.7-68.5s-322.2-40-514.2-56.1s-436.5,32.9-581,47s-319.1,85.4-395.3,104.4s-181,71.2-181,71.2
		S49.8,404.1,0,473.3v343.1v176.5h2560V442.2C2560,442.2,2274.1,274.3,2157.5,226.3z"/>
	
		<radialGradient id="SVGID_00000124136384529770949680000002488442470259553725_" cx="997.7059" cy="33.1176" r="951.9629" gradientUnits="userSpaceOnUse">
		<stop  offset="0" style="stop-color:#E1EDF1"/>
		<stop  offset="1" style="stop-color:#FFFFFF;stop-opacity:0"/>
	</radialGradient>
	<path style="fill:url(#SVGID_00000124136384529770949680000002488442470259553725_);" d="M2157.5,226.3
		c-11.5-4.7-123.8-25.5-258.7-68.5s-322.2-40-514.2-56.1s-436.5,32.9-581,47s-319.1,85.4-395.3,104.4s-181,71.2-181,71.2
		S49.8,404.1,0,473.3v343.1v176.5h2560V442.2C2560,442.2,2274.1,274.3,2157.5,226.3z"/>
</g>
<g>
	<path class="st3" d="M227.3,323.9c59.9-29.2,121.3-56.8,185.9-73.6c4.9-1.3,9.9-2.7,14.8-4.2c88.2-27.3,175.1-59.4,265.3-80.6
		c27.4-6.5,55.4-12.1,83.3-16.2c7.7-1,15.4-2.1,23-2.8c45.9-4.7,91.6-11.1,137.4-17.4c147.3-19.9,296.3-41.4,445.2-30.5
		c13.6,1.1,32.4,2.5,46,3.5c81.9,5.9,164.1,8.6,245.9,15.1c66.5,5.4,133.3,12.8,197.9,30.4c9.9,2.8,19.7,5.8,29.5,9.1
		c72.9,24.8,147.8,42.9,222.7,60.9c5,1.2,10,2.5,14.9,3.9c4.9,1.5,10.1,2.6,14.4,5.3c-4.3-2.7-9.6-3.7-14.4-5.2
		c-5-1.3-9.9-2.5-14.9-3.7c-75.1-17.1-150.2-34.5-223.4-58.8c-9.7-3.2-19.5-6.2-29.4-8.9c-24.7-6.7-49.9-11.7-75.2-15.8
		c-132-20.1-266-19-399-30c-30.4-2.6-61.6-4.2-92.1-4.1c-164.5-0.1-326.7,30.3-489.7,48.7c-102.4,9.2-201.1,39.8-298.6,71.1
		c-39.1,12.6-78,25.9-117.9,35.7C339.6,272.8,282.8,297.6,227.3,323.9L227.3,323.9z"/>
</g>
<g>
	<path class="st3" d="M1999.7,186.5c51,5.9,102.2,11.1,153.5,12.2c12.8,0.1,25.7,0.1,38.4-1.6c4.2-0.6,8.5-1.4,12.4-3.1
		c-3.9,1.8-8.2,2.5-12.4,3.2c-12.7,1.8-25.6,2-38.5,1.9c-34.3-0.3-68.5-2.8-102.6-5.7c-17.1-1.5-34.1-3.1-51.2-5
		C1999.4,188.4,1999.7,186.5,1999.7,186.5L1999.7,186.5z"/>
</g>
<g>
	<path class="st3" d="M243.8,290.8c-5.3,0-17.7-1.8-20-7.2c-1.5-3.8,0.8-8.2,4.2-10c7.3-3.8,18.1,0,25.1,3.1c0,0-1.4,1.9-1.4,1.9
		c-3.6-3.6-5.8-8.5-6.2-13.5c-0.7-4.3,2-7.5,6.3-7.3c2,0.1,4,1,5.6,1.8c0,0-2,1.8-2,1.8c-2.7-6.1-6.8-24.3-0.5-28.9
		c7.5-4.8,16.2,5.2,18.6,11.6c0,0-2.7,0.3-2.7,0.3c0.6-3.3,2.4-6.3,5-8.3c1.5-1.2,4.1-2.7,5.7-0.9c0.6,0.8,0.7,1.5,0.8,2
		c0.4,3,0.5,6.1,0.4,9.1c0,0-2.2-0.6-2.2-0.6c3.6-5.9,10.6-10.6,17.7-9.9c5.1,0.9,5.7,10.5,5.4,14.6c0,0-0.9-0.3-0.9-0.3
		c1.5-2.5,3.3-5,6.2-6c2.7-1,6.6,0.4,6.9,3.5c-0.5-2.9-4.2-4-6.7-3c-2.6,1.1-4.2,3.6-5.5,6c-0.2,0.5-1,0.2-0.9-0.3
		c0.1-4-0.6-9.1-3.1-12.2c-2.9-2.2-8.6,0.7-11.3,2.5c-2.3,1.6-4.3,3.7-5.7,6.2c-0.6,1-2.2,0.6-2.2-0.6c0-2.9-0.2-5.9-0.6-8.7
		c-0.1-0.4-0.2-0.7-0.2-0.7c0,0,0.1,0-0.2,0c-3,1.2-5.4,4.7-5.9,7.9c-0.1,0.8-0.8,1.3-1.6,1.2c-0.5-0.1-0.9-0.4-1.1-0.9
		c-2.1-4.8-6.6-10.7-12.1-11c-5.6,0.2-4,10.4-3.8,14.3c0.5,4,1.5,8,3.1,11.8c0.3,0.7,0,1.6-0.8,1.9c-0.4,0.2-0.8,0.1-1.2,0
		c-1.1-0.5-2.1-1-3.1-1.3c-1.5-0.5-3.9-0.4-4.7,1.2c-0.3,0.6-0.3,1.7-0.3,2.8c0.3,4.4,2.2,8.8,5.3,12.1c0.5,0.5,0.5,1.3,0,1.7
		c-0.4,0.4-0.9,0.4-1.4,0.2c-6.2-2.9-13.2-5.5-20.1-4.8c-4.3,0.4-8.4,4.7-7,9.1C226.7,288,239,290.4,243.8,290.8L243.8,290.8z"/>
</g>
<g>
	<path class="st3" d="M909.9,99.8l-1.7-4.4c-1.4-3.5,0.1-4.7,3.6-4.3c1.4,0,5.5,0.1,7,0.1c0,0-0.7,0.7-0.7,0.7
		c0-2.9-0.6-9.3-0.3-12.2c0.5-6.1,6.1-7.9,10.3-3.6c2,2,2.8,4.6,4.6,6.5c0,0-2.3,1.1-2.3,1.1c-0.4-2.7-0.8-5.6-0.4-8.6
		c0.5-4.7,4.3-9.5,9.4-9.3c4.6,0.1,8.6,3.1,11.8,5.9c0,0-2.2,0.2-2.2,0.2c1.5-1.9,3.2-3.8,5.9-4.2c3-0.4,5.3,2.4,5.7,5
		c0.5,2,0.2,4.6,0.2,6.5c0,0-0.1,6.2-0.1,6.2l-2.5-0.5c1-2.2,2.6-4.1,4.6-5.4c3.2-2.3,9.1-4,9.1,1.9c-0.1,3.4-1.2,6.8-3,9.7
		c0,0-1.2-1.1-1.2-1.1c3.1-2.3,6.9-4.6,10.9-3.8c3,0.5,5.5,3.5,4.7,6.6c-0.2,1-0.8,1.8-1.6,2.3c1.6-1.2,1.8-3.4,1-5.1
		c-0.7-1.7-2.5-2.7-4.2-2.9c-3.8-0.5-7,1.9-9.8,4.2c-0.7,0.6-1.7-0.3-1.2-1c1.6-2.7,2.4-5.8,2.3-8.8c0-0.7-0.1-1.5-0.7-1.8
		c-0.4-0.2-1.4,0-2.3,0.4c-2.7,1.1-5,3.3-6.2,5.9c-0.6,1.3-2.5,0.8-2.5-0.5c0-2.1,0-7.4,0-9.4c0-6-3-7.5-6.7-2.4
		c-0.5,0.7-1.5,0.8-2.2,0.2c-3.5-3-8.5-7-13-4.3c-4.3,2.9-3.9,9-3.2,13.8c0.2,1.3-1.5,2-2.3,1c-2.9-3.1-3.3-7.2-7.2-8.4
		c-4-0.6-4.1,4.8-4.1,7.8c0,0-0.1,8-0.1,8c0,0.4-0.3,0.7-0.7,0.7c-1.5-0.1-5.6-0.5-7-0.6c-3-0.4-4.2,0-3.2,3.3
		C908.6,95.3,909.9,99.8,909.9,99.8L909.9,99.8z"/>
</g>
<g>
	<path class="st3" d="M995.4,101.5c0.5-3.1,3.6-5.2,6.6-5.7c3.1-0.5,6.2,0.3,9.1,1c0,0-0.6,0.4-0.6,0.4c0-2.1-1.5-4.5-0.5-6.7
		c1.7-4.7,7.4-6.4,11.9-5.3c2.3,0.5,4.4,1.3,6.4,2.1l-1,1.4c-3.6-4-14.7-18.8-3.7-19.8c6.3-0.7,12.7,1.6,17.1,6.1
		c0,0-2.3,1.1-2.3,1.1c-0.6-4.3-0.5-8.7,0.4-13c1.2-5.3,2.9-11.2,7.5-14.6c3.4-2.6,8.3-1.3,10,2.6c2.1,3.9,0.5,8.8,1.1,12.8
		c0,0-2-1.1-2-1.1c3.5-1.7,4.8-6.6,8.8-8.1c3.6-1.7,7.3,1,7.9,4.6c1.1,4.2-2.1,8.6-2.8,12.2c0,0-2.3-1.2-2.3-1.2
		c4.5-4.3,10.9-6.3,17-5.3c3.2,0.4,5.4,2.1,4.5,5.6c-0.9,3.8-3.5,7.2-7,9c0,0-0.9-1.9-0.9-1.9c7.1-3,15-6.2,22.8-3.9
		c2.8,0.9,6,2.6,6.9,5.7c0.8,3.2-1.8,6.3-4.6,7.3c-1.9,0.8-3.8,1-5.7,1.2c-0.2,0-0.3-0.1-0.4-0.3c0-0.2,0.1-0.3,0.2-0.3
		c4.3-1.2,9.1,0.8,11.3,4.4c-2.4-3.5-7.2-5.1-11.1-3.8c0,0-0.1-0.6-0.1-0.6c1.9-0.3,3.8-0.6,5.5-1.4c2.4-1,4.5-3.5,3.8-6.2
		c-0.9-2.6-3.6-3.8-6.1-4.6c-7.3-1.9-14.8,1.4-21.5,4.4c-1.3,0.6-2.1-1.3-0.9-1.9c2.3-1.3,4.1-3.4,5.1-5.8c0.5-1.6,1.3-3.4-0.2-4
		c-5.6-1.7-12.3,0.2-16.4,4.3c-0.5,0.5-1.4,0.5-2,0c-0.3-0.3-0.5-0.8-0.4-1.2c0.6-3,2-5.4,2.6-7.7c0.9-2.6-0.4-7.3-3.9-5.8
		c-3.7,1.7-4.8,6.5-8.8,8.1c-0.9,0.4-1.9-0.2-2-1.1c-0.6-3.4,0.2-6.3-0.1-9.5c-0.2-2.3-1.8-5.2-4.3-4.9c-3.5,0.4-5.7,4.8-6.9,7.8
		c-2.2,5.6-3,11.8-2.2,17.8c0.1,0.7-0.4,1.4-1.2,1.5c-0.4,0.1-0.9-0.1-1.1-0.4c-3.8-4-9.5-6.1-14.9-5.6c-4,0-2.8,3.4-1.7,5.9
		c1.6,3.8,3.8,7.3,6.5,10.4c0.7,0.7-0.2,1.8-1,1.4c-2-0.9-4-1.7-6.1-2.2c-4.7-1.5-11.8,1.3-10.7,7.1c0.2,1,0.6,2.2,0.5,3.4
		c0,0.2-0.2,0.4-0.5,0.4c-2.9-0.9-5.9-1.8-8.9-1.4C999.1,96.6,996,98.5,995.4,101.5L995.4,101.5z"/>
</g>
<g>
	<path class="st3" d="M1384.4,95.5c-0.7-1-1.4-2.2-1.3-3.5c0.1-2.4,2.5-3.9,4.6-2.8c1.2,0.5,3.7,2.1,4.9,2.8c0,0-1.3,0.8-1.3,0.8
		c-0.5-7,11-8,13.5-2.3c0,0-1.7-0.1-1.7-0.1c1-1.7,2.6-3,4.5-3.7c3.6-1.5,8.9,0.5,8.9,4.8c0.1,1.9-1,3.9-2.7,4.4
		c1.6-0.9,2.1-2.8,1.9-4.4c-1.1-5.5-8.8-4.4-10.9-0.2c-0.3,0.5-0.9,0.6-1.3,0.3c-0.2-0.1-0.3-0.3-0.4-0.5c-0.4-0.9-1.2-1.6-2.3-2
		c-2.7-1.1-7.8-0.4-7.7,3.3c0.1,0.5-0.3,0.9-0.7,1c-0.2,0-0.4,0-0.6-0.1l-3.1-2.1c-1-0.7-2-1.4-2.9-1.4
		C1383.2,90.3,1383.3,93.7,1384.4,95.5L1384.4,95.5z"/>
</g>
<g>
	<path class="st3" d="M1592.9,109.1c-1.5-1.1-1-3.5,0.4-4.5c2.2-1.7,5.1-0.9,7.4,0c0.4,0.1,0.6,0.2,0.7,0.2c0.3-0.2,0.5-0.7,0.6-1.2
		c2.3-7.7,11.7-6.8,10.1,1.8c-0.1,0.5-0.2,1.1-0.3,1.5c0,0,0,0.1,0.1,0.2c1.5,0.5,3,1.8,3.3,3.4c-0.6-1-1.5-1.8-2.5-2.2
		c-0.6-0.2-1.5-0.1-1.9-0.9c-0.2-0.4-0.1-0.7-0.1-0.9c0.1-1.1,0.2-2.3,0-3.3c-0.5-3.1-3.4-3.8-5.4-1.6c-1.1,1.1-1.4,2.6-2.1,4
		c-0.3,0.4-0.8,1-1.6,1.1c-0.7,0.1-1.2-0.2-1.6-0.3c-1.4-0.6-2.7-1.3-4.2-1.3C1593.6,104.7,1591.4,107,1592.9,109.1L1592.9,109.1z"
		/>
</g>
<g>
	<path class="st3" d="M1539,74.4c-5-2.2-4.7-9.4,0.4-11.4c4.8-1.7,9.2,2.3,13.6,3.4c0,0-0.9,0.7-0.9,0.7s0-8.2,0-8.2
		c0-0.7,0-1.5,0.4-2.4c1.1-2.4,4-2.6,6.3-2.7c5.8-0.1,11.6,3.1,14.5,8.4c0,0-2.3,0.5-2.3,0.5s0.2-11.7,0.2-11.7
		c0.1-4.1,0.1-8.5,2.8-12c2.9-3.8,8.7-3.9,12.5-1.4c3.7,2.3,5.7,6.3,7,10.3c0,0-2.7-0.3-2.7-0.3c1.8-3,3.8-6.1,6.7-8.5
		c3.4-3.1,11.3-5.7,13.5,0c2,6.2,1.2,13.1-1.9,18.8c0,0-2.1-1.8-2.1-1.8c2.6-2,5.3-3.7,8.2-5.2c1.6-0.8,2.9-1.6,4.8-1.9
		c3.1-0.6,6,2.1,6.4,5.1c0.7,6-3.5,11.8-8.2,15.1c0,0-0.6-1.8-0.6-1.8c2-0.1,4-0.7,6-1.3c3.1-0.9,6.7-1.7,9.9-0.5
		c3.3,1.1,5.6,5.6,3.3,8.7c0,0-0.7-0.7-0.7-0.7c4.9-4.4,13.8-3,16.8,2.9c-3.2-5.3-11.7-6.5-16.2-2.2c-0.5,0.4-1.1-0.2-0.7-0.7
		c1.1-1.5,0.6-3.8-0.7-5.2c-1.2-1.5-3.3-2-5.2-2c-4.3,0.1-8,2.4-12.4,2.8c-1,0.1-1.5-1.3-0.6-1.8c3.6-2.6,6.4-6.6,7-11
		c0.4-2.4-1-5.4-3.7-5c-4.1,1.3-8.2,4.2-11.7,6.8c-1.2,0.9-2.8-0.5-2.1-1.8c2.6-5,3.3-11.1,1.6-16.5c-1.2-3.2-7.1-0.5-8.9,1.3
		c-2.4,2.1-4.4,4.9-6.1,7.8c-0.4,0.7-1.3,0.9-2,0.5c-0.3-0.2-0.5-0.5-0.6-0.8c-0.6-1.8-1.3-3.5-2.2-5c-2.2-4.3-8.7-7.2-12.2-3
		c-2.2,2.8-2.2,6.8-2.4,10.3c0,0-0.5,11.7-0.5,11.7c0,1.2-1.7,1.6-2.3,0.5c-1.1-2.2-3-4.1-5.1-5.4c-2.7-1.6-6-2.4-9.1-1.9
		c-1.1,0.1-2.3,0.4-2.8,1.3c-0.5,0.9-0.4,8.7-0.6,9.8c0,0.5-0.5,0.8-0.9,0.7c-3.5-1.1-6.2-3.4-9.7-4.2
		C1536.2,62.1,1532.8,71.1,1539,74.4L1539,74.4z"/>
</g>
<g>
	<path class="st3" d="M1999.7,153.9c-3.1-2.6-6.7-6.5-5.3-11c2-5.8,7.4-3.6,11.6-2c2.6,1,5.2,2.1,7.7,3.3c0,0-1.6,1.5-1.6,1.5
		c-2.7-5.7,1.8-12.5,8.1-12.1c2,0,4.2,1.1,5.7,2.3c0.4,0.3,0.8,0.4,0.8,0.3c0,0,0,0.1,0.2-0.3c1.6-4.1,3.1-8.6,6.8-11.6
		c3.4-2.7,8.6-3.6,12.2-0.7c3.5,2.8,3.2,8,2.7,11.7c0,0-1.7-1.5-1.7-1.5c4.5-1.1,9.2-1.7,13.8-1.6c3-0.2,5.8,0.9,5.9,4.3
		c0.2,2.6-1.7,4.8-3.4,6.5c0,0-0.9-1.2-0.9-1.2c6.3-3.2,13.5,2.6,11.2,9.3c1.5-6.2-5.1-11.2-10.5-8c-0.8,0.5-1.5-0.6-0.9-1.2
		c1.3-1.6,2.8-3.2,2.6-5.3c-0.3-2.3-1.9-2.4-4-2.3c-4.5,0.2-8.9,0.9-13.1,2c-0.9,0.3-1.8-0.5-1.7-1.5c0.5-4.1,0.5-9.6-4.5-10.2
		c-4.6-0.5-8,3.3-9.8,7.2c-0.5,1.1-1,2.2-1.4,3.3c-0.4,1-0.7,2.2-1.7,3c-3.3,2.4-5.5-2.2-8.6-2c-4.4-0.5-7.6,4.5-5.9,8.4
		c0.3,0.6,0,1.3-0.6,1.5c-0.3,0.1-0.7,0.1-1,0c-2.4-1.3-4.9-2.5-7.4-3.6c-2.3-0.8-5-2.5-7.4-1.9c-2.4,0.8-3.3,4-2.7,6.3
		C1995.9,149.7,1997.9,151.9,1999.7,153.9L1999.7,153.9z"/>
</g>
<g>
	<path class="st3" d="M2061.9,263.9c2.2,0.9,4.6,1.2,6.5,0.4c3.2-1.7,3.2-5,0.4-6.9c-1.6-1.2-3.9-2-5.7-0.7
		c-0.8,0.6-1.5,1.7-1.3,2.9c-0.3-0.5-0.4-1.2-0.3-1.8c0.8-3.8,5.7-3.8,8.3-1.9c4.3,2.5,3.8,8.2-0.9,9.9
		C2066.5,266.5,2063.8,265.6,2061.9,263.9L2061.9,263.9z"/>
</g>
<g>
	<path class="st3" d="M2091.6,250.1c0.6,2.5,3.1,2.6,5.2,2.3c2-0.3,3.9-0.2,4.4-2.2c1.2-4.2-2.4-8.7-6.7-6.3c0.6-1.1,1.9-1.9,3.2-2
		c4.7-0.6,7.6,5,6.4,9.1c-0.3,1.5-1.7,3.1-3.2,3.5c-1.5,0.5-2.8,0.3-4,0.3c-1.2-0.1-2.7-0.3-3.9-1.1
		C2092,252.9,2091.1,251.4,2091.6,250.1L2091.6,250.1z"/>
</g>
<g>
	<path class="st3" d="M2117.7,274.3c-2.1,1.6-5.3,0.3-7.6,1.2c-2.9,0.6-4.9,4.5-1.6,6c1.9,0.9,4.9,1.4,7,1.1
		c1.1-0.2,2.2-0.9,2.5-2.2c0.2,0.7,0.1,1.5-0.3,2.1c-1.9,3.3-10.1,2.9-12.5,0.2c-3.4-3.6,0.1-9.2,4.5-9.5c1.5-0.2,3,0.1,4.3,0.5
		C2115.3,274,2116.4,274.6,2117.7,274.3L2117.7,274.3z"/>
</g>
<g>
	<path class="st3" d="M2073.5,290.3c1.8-1.3,5-1.4,6,1.1c0.6,1.7-0.2,3.5-1.5,4.5c-1.9,1.3-4.3,1-6.2,0.3c2.2-0.6,4.9-0.6,5.8-2.9
		C2078.5,290.7,2075.5,290.3,2073.5,290.3L2073.5,290.3z"/>
</g>
<g>
	<path class="st3" d="M2090.9,273.7c1.1-1,2-1.1,3.3-0.4C2094,275.1,2091.5,275.3,2090.9,273.7L2090.9,273.7z"/>
</g>
<g>
	<path class="st3" d="M2088.6,309.9c-0.9-3,0.9-8.8,4.8-8.4c0.9,0.2,1.7,0.8,2.1,1.5c0.7,1.4,0.7,2.8,0.4,4.1
		c-0.7-1.5-1.2-3.5-2.7-3.7c-0.4,0-0.7,0.1-1,0.4C2090.5,305.3,2089.4,307.7,2088.6,309.9L2088.6,309.9z"/>
</g>
<g>
	<path class="st3" d="M2136.1,294.8c1.5-0.3,2.7,0.9,2.3,2.4C2136.9,297.5,2135.8,296.3,2136.1,294.8L2136.1,294.8z"/>
</g>
<g>
	<path class="st3" d="M2152.1,301.9c0.7-1.3,2.2-1.3,2.8,0C2154.2,303.3,2152.7,303.2,2152.1,301.9L2152.1,301.9z"/>
</g>
<g>
	<path class="st4" d="M2136.5,259.1"/>
</g>
<g>
	<path class="st3" d="M1861.5,196.1c0.8,3.6,5.7,4.5,7.5,1.4c0.9-1.3,1.2-3.1,0.7-4.5c-0.6-1.7-2.6-2-4.3-2c0.9-0.4,1.9-0.6,3-0.5
		c3.8,0.5,4.2,5.6,2.3,8.2c-1.2,1.9-3.8,3.1-5.9,2.3C1862.8,200.3,1861,198.2,1861.5,196.1L1861.5,196.1z"/>
</g>
<g>
	<path class="st3" d="M1842.5,211.6c0.9,0.6,1.7,1.3,2.6,1.9c0.8,0.6,1.6,1.2,2.5,2C1845.2,216.9,1841.7,214.3,1842.5,211.6
		L1842.5,211.6z"/>
</g>
<g>
	<path class="st3" d="M1866.5,210.3c3-2.1,8.9,1.9,9,5.4c0.1,1.4-0.6,3-2,3.4c-1.2,0.4-2.9-0.5-2.8-1.8c0.5,0.9,1.6,1.1,2.3,0.6
		c0.6-0.4,0.8-1.3,0.6-2c-0.4-1.8-2.1-3-3.4-4.2C1869.1,210.8,1868,210.2,1866.5,210.3L1866.5,210.3z"/>
</g>
<g>
	<path class="st3" d="M1830.2,228.5c0.9,2.4,2.2,4.1,4.2,5.7C1831.3,235.7,1827.9,231.1,1830.2,228.5L1830.2,228.5z"/>
</g>
<g>
	<path class="st3" d="M1862.2,229.9c1.4-1.4,4-0.5,4.2,1.4C1864.7,231.7,1863.4,231.2,1862.2,229.9L1862.2,229.9z"/>
</g>
<g>
	<path class="st3" d="M1820.3,178.6c1.3,1.3,1.3,3.4,0,4.7C1818.9,182,1819,180,1820.3,178.6L1820.3,178.6z"/>
</g>
<g>
	<path class="st3" d="M1575.8,163.2c4.9-1.6,9.2-4.6,14.6-4.5c8.8-0.1,13.2,11.1,4,14.8c-7,3.1-18.6,2.6-19.7-6.9
		c-0.1-1.3,0.2-2.7,0.9-3.7c-0.8,2.4,0.1,4.9,1.6,6.6c3.1,3.8,8.4,3.6,12.7,2.4c3.1-0.8,6.6-1.9,6.6-5.3c-0.1-1.9-1.5-3.9-3.2-4.7
		C1587.7,159.2,1581.6,162.8,1575.8,163.2L1575.8,163.2z"/>
</g>
<g>
	<path class="st3" d="M1590.7,145.7c-2.9,0.1-3.6-4.3-1.4-6c2-1.7,5.3-1,6.5,1.2c-1.1-0.3-2.1-0.5-3-0.4c-0.9,0.1-1.7,0.3-2.3,0.8
		C1589.3,142.2,1589.1,144.6,1590.7,145.7L1590.7,145.7z"/>
</g>
<g>
	<path class="st3" d="M1542.8,153.5c2.2,0.1,4.6,0.4,6.8,0.7c0.7,0.1,1.5,0.2,2.4,0.4c-0.7,0.6-1.4,0.9-2.3,1.2
		C1547.2,156.3,1544.3,155.6,1542.8,153.5L1542.8,153.5z"/>
</g>
<g>
	<path class="st3" d="M1520.1,141c0.6-1.8,2.5-2.7,4.2-2.1C1523.7,140.7,1521.8,141.6,1520.1,141L1520.1,141z"/>
</g>
<g>
	<path class="st3" d="M1501.7,157.2c0.1-1.9,2.8-2.4,3.5-0.7C1504.1,157.6,1503.1,157.8,1501.7,157.2L1501.7,157.2z"/>
</g>
<g>
	<path class="st3" d="M1504.7,175c-0.6,3.4-0.3,6.3,0.7,9.5C1501.8,183,1501.4,177.1,1504.7,175L1504.7,175z"/>
</g>
<g>
	<path class="st3" d="M1528.5,165.8c0.9-1,1.7-0.6,1.4,0.7C1529,167.5,1528.2,167.1,1528.5,165.8L1528.5,165.8z"/>
</g>
<g>
	<path class="st3" d="M1551.1,188.3c2.6-1.9,7,0.3,7.1,3.5C1556,190.5,1553.5,189.3,1551.1,188.3L1551.1,188.3z"/>
</g>
<g>
	<path class="st3" d="M1510.8,196.1c2-0.6,3.8-0.4,5.7,0.6C1515,198.5,1511.9,198.2,1510.8,196.1L1510.8,196.1z"/>
</g>
<g>
	<path class="st3" d="M1460,176.7c-2.5,0.3-5.3-0.5-6.9,1.8c-0.4,0.6-0.8,1.4-0.4,2.4c-1.1-0.4-1.4-2-1-3
		C1452.7,174.2,1457.6,174.5,1460,176.7L1460,176.7z"/>
</g>
<g>
	<path class="st3" d="M1458.7,154.4c1.4-3.4,6.8-4.3,9.2-1.5C1464.6,153,1461.8,153.5,1458.7,154.4L1458.7,154.4z"/>
</g>
<g>
	<path class="st3" d="M1429,165c0.2-1.3,0.5-1.3,0.7,0C1429.5,166.3,1429.2,166.3,1429,165L1429,165z"/>
</g>
<g>
	<path class="st3" d="M845.9,157.2c0.4,1.9-0.8,3.8-2,5.3c-1.2,1.5-2.5,2.9-4.1,4.1c-3.9,3.4-11.9,3-12.9-3.1
		c-0.4-3.3,1.8-6.4,4.6-7.8c3.7-1.7,7.7-1,11.5-0.2c-5-0.2-11.9-0.3-13.8,5.3c-1.3,3.4,1.7,6.2,5.1,6c3.6,0,6.5-2.7,9.1-5.1
		C844.6,160.6,845.8,159.2,845.9,157.2L845.9,157.2z"/>
</g>
<g>
	<path class="st3" d="M871.6,165.6c-1.4,0.8-2,2.3-2,3.7c0,4.6,6.2,6.1,9.5,4c2.3-1.2,2-4.8,0.1-6.7c-1-1-2.3-1.6-3.8-1.9
		c-1.5-0.3-3-0.3-4.6-0.1c1.5-0.6,3.1-0.9,4.7-0.9c5.9-0.1,10,7.5,4.7,11.3c-3.8,2.3-9.6,1.1-11.3-3.2
		C868,169.5,869,166.3,871.6,165.6L871.6,165.6z"/>
</g>
<g>
	<path class="st3" d="M903.8,167.3c-0.1,2.9,1.6,6.1,4.6,5.9c1.5-0.1,3.3-1.4,3.2-3c-0.2-3-3.7-4-6.3-5.2c2.1,0,4.4,0.3,6.4,1.8
		c2.2,1.6,2.4,5.1,0.3,6.9C907.3,177.8,901.4,172.3,903.8,167.3L903.8,167.3z"/>
</g>
<g>
	<path class="st3" d="M918.5,157.3c0.3,2.1,3,2.6,4.5,1.8c1.6-0.9,2.5-2.7,3.3-4.6c0.4-0.8,0.7-1.7,0.6-2.4c-0.2-1.5-6,2.4-6.8,3
		c1.1-1.9,2.8-3.4,4.7-4.5c2.5-1.6,4.6,0.3,3.9,3.1c-0.9,2.8-2.3,5.7-5.1,6.9C921.4,161.4,917.9,159.9,918.5,157.3L918.5,157.3z"/>
</g>
<g>
	<path class="st3" d="M844.5,177c3.2-1.1,6.9-0.8,9.9,0.8C851.2,178.9,847.5,178.6,844.5,177L844.5,177z"/>
</g>
<g>
	<path class="st3" d="M815.6,169.9c1.3,1,1.9,1.8,2.2,3.5C815.8,174.1,814.1,171.4,815.6,169.9L815.6,169.9z"/>
</g>
<g>
	<path class="st3" d="M824.7,189.8c2-0.6,3.8-0.4,5.7,0.6C828.9,192.1,825.8,191.8,824.7,189.8L824.7,189.8z"/>
</g>
<g>
	<path class="st3" d="M817.8,200.5c-1.5,1.9-4.3,3.2-6.7,1.9c-1.3-0.7-2.3-2.4-1.7-3.8c0.4-1.3,2.2-2.3,3.3-1.3
		c-1,0-1.7,0.9-1.7,1.7c0,0.7,0.4,1.2,1.1,1.6C813.8,201.6,815.8,200.8,817.8,200.5L817.8,200.5z"/>
</g>
<g>
	<path class="st3" d="M794.3,185.5c1.9,0.8,3.1,1.8,4.4,3.4C796.5,190.1,793.7,187.8,794.3,185.5L794.3,185.5z"/>
</g>
<g>
	<path class="st3" d="M778.2,212.3c-2,2-5.4,2.3-7.8,0.7C772.9,211.8,775.5,211.6,778.2,212.3L778.2,212.3z"/>
</g>
</svg>
