<svg width="15" height="15" viewBox="0 0 15 15" fill="none" xmlns="http://www.w3.org/2000/svg">
<path d="M15 7.64151C15 8.34906 14.434 8.91509 13.7264 8.91509H8.63208V13.7264C8.63208 14.434 8.06604 15 7.35849 15C6.65094 15 6.08491 14.434 6.08491 13.7264V8.91509H1.27358C0.566038 8.91509 0 8.34906 0 7.64151C0 6.93396 0.566038 6.36792 1.27358 6.36792H6.08491V1.27358C6.08491 0.566038 6.65094 0 7.35849 0C8.06604 0 8.63208 0.566038 8.63208 1.27358V6.36792H13.7264C14.434 6.36792 15 6.93396 15 7.64151Z" fill="#00AEEF"/>
</svg>
