<?xml version="1.0" encoding="UTF-8"?>
<svg xmlns="http://www.w3.org/2000/svg" xmlns:xlink="http://www.w3.org/1999/xlink" width="56px" height="56px" viewBox="0 0 56 56" version="1.1">
<g id="surface1">
<path style=" stroke:none;fill-rule:nonzero;fill:rgb(92.941176%,92.941176%,92.941176%);fill-opacity:1;" d="M 0 56 L 3.859375 42 C 1.351562 37.65625 0 32.824219 0 27.808594 C 0 12.550781 12.550781 0 27.902344 0 C 43.257812 0 56 12.550781 56 27.808594 C 56 43.0625 43.257812 56 27.902344 56 C 23.074219 56 18.441406 54.457031 14.292969 52.140625 Z M 0 56 "/>
<path style=" stroke:none;fill-rule:nonzero;fill:rgb(33.333333%,80.392157%,42.352941%);fill-opacity:1;" d="M 15.0625 47.117188 L 15.933594 47.601562 C 19.5 49.820312 23.65625 51.175781 28 51.175781 C 40.648438 51.175781 51.175781 40.648438 51.175781 27.808594 C 51.175781 14.964844 40.648438 4.824219 27.902344 4.824219 C 15.160156 4.824219 4.824219 15.0625 4.824219 27.808594 C 4.824219 32.25 6.082031 36.589844 8.398438 40.261719 L 8.980469 41.132812 L 6.757812 49.242188 Z M 15.0625 47.117188 "/>
<path style=" stroke:none;fill-rule:nonzero;fill:rgb(99.607843%,99.607843%,99.607843%);fill-opacity:1;" d="M 20.46875 14.867188 L 18.632812 14.773438 C 18.058594 14.773438 17.476562 14.964844 17.089844 15.351562 C 16.21875 16.125 14.773438 17.574219 14.382812 19.5 C 13.707031 22.398438 14.773438 25.875 17.285156 29.351562 C 19.792969 32.824219 24.621094 38.425781 33.117188 40.839844 C 35.820312 41.617188 37.941406 41.132812 39.683594 40.066406 C 41.035156 39.199219 41.902344 37.851562 42.191406 36.398438 L 42.484375 35.050781 C 42.578125 34.660156 42.382812 34.179688 42 33.984375 L 35.917969 31.183594 C 35.535156 30.992188 35.050781 31.089844 34.757812 31.476562 L 32.34375 34.566406 C 32.148438 34.757812 31.859375 34.859375 31.574219 34.757812 C 29.933594 34.179688 24.425781 31.859375 21.433594 26.066406 C 21.339844 25.78125 21.339844 25.492188 21.535156 25.296875 L 23.851562 22.691406 C 24.042969 22.398438 24.140625 22.015625 24.042969 21.726562 L 21.242188 15.449219 C 21.140625 15.160156 20.859375 14.867188 20.46875 14.867188 "/>
</g>
</svg>
