<svg id="smartphone" xmlns="http://www.w3.org/2000/svg" width="38" height="38" viewBox="0 0 38 38">
  <g id="Group_57" data-name="Group 57">
    <g id="Group_56" data-name="Group 56">
      <path id="Path_71" data-name="Path 71" d="M1.226,4.9H20.839V6.129h1.226V3.065A3.068,3.068,0,0,0,19,0H3.065A3.068,3.068,0,0,0,0,3.065V30.645H1.226Zm0-1.839A1.841,1.841,0,0,1,3.065,1.226H19a1.841,1.841,0,0,1,1.839,1.839v.613H1.226Z" fill="#fff"/>
      <path id="Path_72" data-name="Path 72" d="M0,419.064a3.068,3.068,0,0,0,3.065,3.065H19a3.068,3.068,0,0,0,3.065-3.065V416H0Zm1.226-1.839H20.839v1.839A1.841,1.841,0,0,1,19,420.9H3.065a1.841,1.841,0,0,1-1.839-1.839Z" transform="translate(0 -384.129)" fill="#fff"/>
      <rect id="Rectangle_36" data-name="Rectangle 36" width="6.129" height="1.226" transform="translate(7.968 34.323)" fill="#fff"/>
      <path id="Path_73" data-name="Path 73" d="M315.677,248a3.677,3.677,0,1,0,3.677,3.677A3.681,3.681,0,0,0,315.677,248Zm0,6.129a2.452,2.452,0,1,1,2.452-2.452A2.454,2.454,0,0,1,315.677,254.129Z" transform="translate(-288.097 -229)" fill="#fff"/>
      <path id="Path_74" data-name="Path 74" d="M99.065,144a3.065,3.065,0,1,0,3.065,3.065A3.068,3.068,0,0,0,99.065,144Zm0,4.9a1.839,1.839,0,1,1,1.839-1.839A1.841,1.841,0,0,1,99.065,148.9Z" transform="translate(-88.645 -132.968)" fill="#fff"/>
      <path id="Path_75" data-name="Path 75" d="M59.836,155.447q.169-.064.336-.141l1.9,1.267,2.444-2.444-1.267-1.9q.076-.168.141-.336l2.237-.447v-3.457l-2.237-.447a6.473,6.473,0,0,0-.3-.669L62,147.443a4.889,4.889,0,0,1,.34.813l.108.348,1.951.39v1.446l-1.952.39-.108.348a4.862,4.862,0,0,1-.34.813l-.169.322,1.106,1.66L61.916,155l-1.66-1.107-.322.169a4.893,4.893,0,0,1-.813.341l-.347.109-.39,1.951H56.937l-.39-1.951L56.2,154.4a4.893,4.893,0,0,1-.813-.341l-.322-.169L53.4,155l-1.378-1.378-.867.867,2.089,2.089,1.9-1.267q.167.076.336.141l.447,2.237h3.456Z" transform="translate(-47.24 -135.62)" fill="#fff"/>
      <path id="Path_76" data-name="Path 76" d="M32,86.239V89.7l2.237.447a6.477,6.477,0,0,0,.3.669l1.085-.571a4.889,4.889,0,0,1-.34-.813l-.108-.348-1.951-.39V87.245l1.952-.39.108-.348a4.859,4.859,0,0,1,.34-.813l.169-.322-1.106-1.66,1.023-1.023,1.66,1.107.322-.17a4.911,4.911,0,0,1,.812-.34l.347-.108.39-1.951h1.447l.39,1.951.347.108a4.889,4.889,0,0,1,.812.34l.322.17,1.66-1.107L45.6,84.067l.867-.867-2.088-2.089-1.9,1.266c-.112-.051-.224-.1-.336-.141L41.7,80H38.239l-.447,2.237c-.113.044-.224.09-.336.141l-1.9-1.266-2.444,2.444,1.267,1.9q-.076.168-.141.336Z" transform="translate(-29.548 -73.871)" fill="#fff"/>
      <rect id="Rectangle_37" data-name="Rectangle 37" width="1.226" height="1.226" transform="translate(9.806 23.29)" fill="#fff"/>
      <rect id="Rectangle_38" data-name="Rectangle 38" width="1.226" height="1.226" transform="translate(9.806 25.742)" fill="#fff"/>
      <rect id="Rectangle_39" data-name="Rectangle 39" width="1.226" height="1.226" transform="translate(9.806 28.194)" fill="#fff"/>
      <rect id="Rectangle_40" data-name="Rectangle 40" width="1.226" height="1.226" transform="translate(26.968 9.806)" fill="#fff"/>
      <rect id="Rectangle_41" data-name="Rectangle 41" width="1.226" height="1.226" transform="translate(26.968 7.355)" fill="#fff"/>
      <rect id="Rectangle_42" data-name="Rectangle 42" width="1.226" height="1.226" transform="translate(26.968 4.903)" fill="#fff"/>
      <path id="Path_77" data-name="Path 77" d="M265.936,256.516v-4.683l-3.023-.6q-.106-.266-.232-.525l-1.1.536a6.545,6.545,0,0,1,.3.723l.115.332,2.716.543v2.672l-2.716.544-.115.332a6.625,6.625,0,0,1-.3.723l-.154.316,1.538,2.306-1.89,1.89-2.307-1.537-.316.154a6.481,6.481,0,0,1-.723.3l-.332.115-.542,2.716h-2.672l-.544-2.716-.332-.115a6.6,6.6,0,0,1-.723-.3l-.316-.154-2.307,1.537-2.245-2.244-.867.867L249.8,263.2l2.565-1.71c.067.029.134.057.2.084l.6,3.023h4.683l.6-3.023c.067-.027.135-.055.2-.084l2.565,1.71,3.311-3.31-1.711-2.566c.029-.067.057-.134.084-.2Z" transform="translate(-227.936 -231.497)" fill="#fff"/>
      <path id="Path_78" data-name="Path 78" d="M225.4,164.707l1.711,2.565c-.029.067-.057.134-.084.2l-3.022.6v4.683l3.023.6c.07.177.148.352.232.525l1.1-.536a6.486,6.486,0,0,1-.3-.723l-.115-.332-2.716-.543v-2.672l2.716-.544.115-.332a6.66,6.66,0,0,1,.3-.723l.154-.316-1.538-2.306,1.89-1.89,2.306,1.537.316-.153a6.613,6.613,0,0,1,.724-.3l.33-.115.542-2.715h2.673l.543,2.715.33.115a6.651,6.651,0,0,1,.724.3l.316.153,2.306-1.537,2.245,2.245.867-.867-2.956-2.955-2.566,1.71c-.066-.029-.134-.056-.2-.083l-.6-3.023h-4.682l-.6,3.023c-.067.027-.135.055-.2.083l-2.566-1.71Z" transform="translate(-206.839 -147.742)" fill="#fff"/>
    </g>
  </g>
</svg>
