<svg width="1191" height="731" viewBox="0 0 1191 731" fill="none" xmlns="http://www.w3.org/2000/svg">
<path d="M155.47 545.363L157.476 543.859L156.574 539.445L154.066 538.643C153.264 536.336 152.16 534.23 150.857 532.224L151.86 529.917L148.851 526.607L146.243 527.209C144.437 525.604 142.431 524.3 140.225 523.297L139.924 520.79L135.711 519.386L133.806 521.191C131.499 520.79 129.092 520.589 126.685 520.79L125.18 518.784L120.767 519.687L119.965 522.194C117.658 522.996 115.551 524.1 113.545 525.404L111.239 524.401L107.929 527.41L108.531 530.017C106.926 531.823 105.622 533.829 104.619 536.035L102.111 536.336L100.707 540.549L102.513 542.454C102.111 544.761 101.911 547.168 102.111 549.576L100.105 551.08L101.008 555.493L103.516 556.296C104.318 558.602 105.421 560.709 106.725 562.715L105.722 565.022L108.731 568.331L111.339 567.73C113.144 569.334 115.15 570.638 117.357 571.641L117.658 574.149L121.87 575.553L123.776 573.747C126.083 574.149 128.49 574.349 130.897 574.149L132.402 576.155L136.815 575.252L137.617 572.745C139.924 571.942 142.03 570.839 144.036 569.535L146.343 570.538L149.653 567.529L149.051 564.921C150.656 563.116 151.96 561.11 152.963 558.903L155.47 558.602L156.874 554.39L155.069 552.484C155.571 550.177 155.671 547.77 155.47 545.363ZM128.691 561.812C120.767 561.812 114.448 555.393 114.448 547.57C114.448 539.746 120.867 533.327 128.691 533.327C136.614 533.327 142.933 539.746 142.933 547.57C142.933 555.393 136.614 561.812 128.691 561.812Z" stroke="#E7F4FB" stroke-width="3" stroke-miterlimit="10"/>
<path d="M134.709 547.57C134.709 550.88 132.001 553.588 128.691 553.588C125.381 553.588 122.673 550.88 122.673 547.57C122.673 544.26 125.381 541.552 128.691 541.552C132.001 541.451 134.709 544.16 134.709 547.57Z" stroke="#E7F4FB" stroke-width="3" stroke-miterlimit="10"/>
<path d="M197.696 573.045L199 572.042L198.398 569.234L196.793 568.733C196.292 567.228 195.59 565.824 194.687 564.62L195.289 563.116L193.383 560.909L191.678 561.31C190.475 560.307 189.171 559.405 187.767 558.803L187.566 557.198L184.858 556.296L183.554 557.499C182.05 557.198 180.445 557.098 178.94 557.299L177.937 555.995L175.129 556.596L174.628 558.201C173.123 558.703 171.719 559.405 170.515 560.307L169.011 559.706L166.804 561.611L167.205 563.316C166.202 564.52 165.3 565.824 164.698 567.228L163.093 567.429L162.191 570.137L163.394 571.441C163.093 572.945 162.993 574.55 163.194 576.054L161.89 577.057L162.491 579.866L164.096 580.367C164.598 581.872 165.3 583.276 166.202 584.479L165.601 585.984L167.506 588.19L169.211 587.789C170.415 588.792 171.719 589.695 173.123 590.297L173.324 591.901L176.032 592.804L177.336 591.601C178.84 591.901 180.445 592.002 181.949 591.801L182.952 593.105L185.761 592.503L186.262 590.899C187.767 590.397 189.171 589.695 190.374 588.792L191.879 589.394L194.085 587.488L193.684 585.783C194.687 584.58 195.59 583.276 196.192 581.872L197.796 581.671L198.699 578.963L197.496 577.659C197.696 576.155 197.797 574.65 197.696 573.045ZM180.345 585.884C174.026 585.884 168.911 580.768 168.911 574.45C168.911 568.131 174.026 563.016 180.345 563.016C186.663 563.016 191.779 568.131 191.779 574.45C191.779 580.768 186.663 585.884 180.345 585.884Z" stroke="#F1F8FF" stroke-width="3" stroke-miterlimit="10"/>
<path d="M180.344 583.075C185.108 583.075 188.97 579.213 188.97 574.45C188.97 569.686 185.108 565.824 180.344 565.824C175.581 565.824 171.719 569.686 171.719 574.45C171.719 579.213 175.581 583.075 180.344 583.075Z" stroke="#F1F8FF" stroke-width="3" stroke-miterlimit="10"/>
<path d="M165.099 485.585L167.907 491.202L174.126 492.104L169.613 496.517L170.616 502.736L165.099 499.827L159.482 502.736L160.586 496.517L156.072 492.104L162.291 491.202L165.099 485.585Z" stroke="#F1F8FF" stroke-width="3" stroke-miterlimit="10"/>
<path d="M80.5471 497.721C81.8211 497.721 82.854 496.688 82.854 495.414C82.854 494.14 81.8211 493.107 80.5471 493.107C79.273 493.107 78.2402 494.14 78.2402 495.414C78.2402 496.688 79.273 497.721 80.5471 497.721Z" fill="#F1F8FF"/>
<path d="M90.5771 480.47C91.5188 480.47 92.2822 479.707 92.2822 478.765C92.2822 477.823 91.5188 477.06 90.5771 477.06C89.6354 477.06 88.8721 477.823 88.8721 478.765C88.8721 479.707 89.6354 480.47 90.5771 480.47Z" fill="#F1F8FF"/>
<path d="M921.134 686.009L924 683.891L922.754 677.785L919.265 676.664C918.143 673.424 916.648 670.433 914.779 667.816L916.15 664.576L912.037 659.966L908.424 660.713C905.931 658.595 903.065 656.726 900.075 655.231L899.576 651.741L893.72 649.872L890.978 652.365C887.738 651.741 884.374 651.617 881.009 651.866L878.891 649L872.785 650.246L871.664 653.735C868.424 654.857 865.433 656.352 862.816 658.221L859.576 656.85L854.966 660.963L855.713 664.576C853.595 667.069 851.726 669.935 850.231 672.925L846.741 673.424L844.872 679.28L847.364 682.022C846.741 685.262 846.617 688.626 846.866 691.991L844 694.109L845.246 700.215L848.735 701.336C849.857 704.576 851.352 707.567 853.221 710.184L851.85 713.424L855.963 718.034L859.576 717.287C862.069 719.405 864.935 721.274 867.925 722.769L868.424 726.259L874.28 728.128L877.022 725.635C880.262 726.259 883.626 726.383 886.991 726.134L889.109 729L895.215 727.754L896.336 724.265C899.576 723.143 902.567 721.648 905.184 719.779L908.424 721.15L913.034 717.037L912.287 713.424C914.405 710.931 916.274 708.065 917.769 705.075L921.259 704.576L923.128 698.72L920.636 695.978C921.259 692.738 921.383 689.374 921.134 686.009ZM883.875 713.424C870.293 713.424 859.327 702.458 859.327 688.875C859.327 675.293 870.293 664.327 883.875 664.327C897.458 664.327 908.424 675.293 908.424 688.875C908.424 702.458 897.458 713.424 883.875 713.424Z" stroke="#E7F4FB" stroke-width="2" stroke-miterlimit="10"/>
<path d="M883.5 707C893.717 707 902 698.717 902 688.5C902 678.283 893.717 670 883.5 670C873.283 670 865 678.283 865 688.5C865 698.717 873.283 707 883.5 707Z" stroke="#E7F4FB" stroke-width="2" stroke-miterlimit="10"/>
<path d="M290.83 117.946L296.44 129.366L308.862 131.17L299.846 139.785L302.05 152.208L290.83 146.397L279.81 152.208L281.813 139.785L272.997 131.17L285.42 129.366L290.83 117.946Z" stroke="#F1F8FF" stroke-width="3" stroke-miterlimit="10"/>
<path d="M193.452 44.011C193.452 47.2168 196.057 50.0219 199.463 50.0219C202.669 50.0219 205.474 47.4172 205.474 44.011C205.474 40.6047 202.869 38 199.463 38C196.257 38 193.452 40.8051 193.452 44.011Z" fill="#F1F8FF"/>
<path d="M368.371 101.315C370.252 101.315 371.777 99.7903 371.777 97.9091C371.777 96.0279 370.252 94.5029 368.371 94.5029C366.49 94.5029 364.965 96.0279 364.965 97.9091C364.965 99.7903 366.49 101.315 368.371 101.315Z" fill="#F1F8FF"/>
<path d="M406.44 119.749C408.986 119.749 411.049 117.686 411.049 115.141C411.049 112.595 408.986 110.532 406.44 110.532C403.895 110.532 401.832 112.595 401.832 115.141C401.832 117.686 403.895 119.749 406.44 119.749Z" fill="#F1F8FF"/>
<path d="M252.56 85.8872L237.933 76.6704L223.306 85.8872L208.88 76.6704L194.253 85.8872L179.627 76.6704L165 85.8872" stroke="#E7F4FB" stroke-width="3" stroke-miterlimit="10" stroke-linecap="round" stroke-linejoin="round"/>
<path d="M1076.56 492.417L1062.13 483L1047.51 492.417L1032.88 483L1018.25 492.417L1003.63 483L989 492.417" stroke="#E7F4FB" stroke-width="3" stroke-miterlimit="10" stroke-linecap="round" stroke-linejoin="round"/>
<path d="M161.007 279.78L164.867 276.452L162.471 267.801L157.28 266.47C155.417 261.944 152.888 257.685 149.96 253.958L151.557 249.166L145.168 242.911L140.11 244.375C136.25 241.447 131.991 239.051 127.598 237.32L126.667 232.262L118.015 230L114.288 233.86C109.63 233.327 104.705 233.327 99.7801 233.993L96.4526 230.133L87.8009 232.529L86.4699 237.72C81.9444 239.583 77.6852 242.112 73.9583 245.04L69.1667 243.443L62.9109 249.832L64.375 254.89C61.4467 258.75 59.0509 263.009 57.3206 267.401L52.2627 268.333L50 276.985L53.8599 280.712C53.3275 285.37 53.3275 290.295 53.9931 295.22L50.1331 298.547L52.5289 307.199L57.7199 308.53C59.5833 313.055 62.1123 317.315 65.0405 321.041L63.4433 325.833L69.8322 332.089L74.89 330.625C78.75 333.553 83.0093 335.949 87.4016 337.679L88.3333 342.737L96.985 345L100.712 341.14C105.37 341.672 110.295 341.672 115.22 341.007L118.547 344.867L127.199 342.471L128.53 337.28C133.056 335.416 137.315 332.887 141.042 329.959L145.833 331.556L152.089 325.168L150.625 320.11C153.553 316.25 155.949 311.991 157.679 307.598L162.737 306.666L165 298.015L161.14 294.288C161.672 289.496 161.672 284.572 161.007 279.78ZM108.698 308.663C96.985 309.328 86.8692 300.544 86.2037 288.831C85.5382 277.118 94.3229 267.002 106.036 266.337C117.749 265.538 127.865 274.456 128.53 286.169C129.329 297.882 120.411 307.864 108.698 308.663Z" stroke="#E7F4FB" stroke-width="2" stroke-miterlimit="10"/>
<path d="M119.977 287.28C120.386 293.825 115.205 299.585 108.25 299.978C101.432 300.371 95.4317 295.396 95.0226 288.72C94.6135 282.174 99.7954 276.414 106.75 276.021C113.568 275.629 119.432 280.603 119.977 287.28Z" stroke="#E7F4FB" stroke-width="2" stroke-miterlimit="10"/>
<path d="M140.972 257.08C153.341 254.159 161 241.764 158.08 229.396C155.159 217.027 142.765 209.368 130.396 212.288C118.027 215.209 110.368 227.603 113.288 239.972C116.209 252.341 128.603 260 140.972 257.08Z" fill="#F1F8FF"/>
<path d="M135.655 244.549C134.724 244.549 134.059 243.884 134.059 242.953V234.44C134.059 233.508 134.724 232.843 135.655 232.843C138.183 232.843 140.311 230.715 140.311 228.188C140.311 225.66 138.183 223.532 135.655 223.532C133.128 223.532 131 225.66 131 228.188C131 229.119 130.335 229.784 129.403 229.784C128.472 229.784 127.807 229.119 127.807 228.188C127.807 223.931 131.266 220.472 135.522 220.472C139.779 220.472 143.237 223.931 143.237 228.188C143.237 231.912 140.577 235.105 137.119 235.77V242.953C137.252 243.884 136.586 244.549 135.655 244.549Z" fill="#90D2FC"/>
<path d="M137.518 248.54C137.518 247.475 136.719 246.677 135.655 246.677C134.591 246.677 133.793 247.475 133.793 248.54C133.793 249.604 134.591 250.402 135.655 250.402C136.719 250.402 137.518 249.604 137.518 248.54Z" fill="#90D2FC"/>
<path d="M40 223C41.6569 223 43 221.657 43 220C43 218.343 41.6569 217 40 217C38.3431 217 37 218.343 37 220C37 221.657 38.3431 223 40 223Z" fill="#F1F8FF"/>
<path d="M97 384.5C97 385.824 98.0294 387 99.5 387C100.824 387 102 385.971 102 384.5C102 383.176 100.971 382 99.5 382C98.1765 382 97 383.176 97 384.5Z" fill="#F1F8FF"/>
<path d="M1175.2 308.572L1176.37 303.491L1181.49 302.221L1190.01 310.477C1191.93 306.031 1191.07 300.633 1187.35 297.034C1183.72 293.541 1178.4 292.694 1174.03 294.494C1173.92 294.388 1173.92 294.282 1173.81 294.282L1145.58 266.655C1147.39 262.315 1146.54 257.023 1142.92 253.53C1139.3 249.931 1133.86 249.084 1129.39 250.989L1137.8 259.351L1136.53 264.432L1131.41 265.702L1123 257.34C1121.08 261.786 1121.93 267.079 1125.55 270.783C1129.17 274.382 1134.4 275.229 1138.87 273.43C1138.98 273.535 1138.98 273.641 1139.08 273.641L1167.1 301.056C1167.21 301.162 1167.32 301.268 1167.42 301.268C1165.61 305.714 1166.57 310.9 1170.19 314.499C1173.81 318.098 1179.25 318.945 1183.72 316.934L1175.2 308.572Z" fill="#E7F4FB"/>
<path d="M5.96198 450.153L9.17484 450.884L9.97806 454.071L4.75715 459.382C7.5684 460.577 10.9821 460.046 13.2579 457.722C15.4667 455.465 16.0022 452.145 14.8643 449.423C14.9312 449.357 14.9982 449.357 14.9982 449.29L32.4681 431.696C35.2124 432.825 38.5591 432.294 40.768 430.036C43.0438 427.779 43.5792 424.393 42.3744 421.604L37.0866 426.849L33.8737 426.053L33.0705 422.866L38.3583 417.621C35.5471 416.425 32.2003 416.957 29.8576 419.214C27.5819 421.471 27.0464 424.725 28.1843 427.513C28.1173 427.58 28.0504 427.58 28.0504 427.646L10.7143 445.108C10.6474 445.174 10.5805 445.24 10.5805 445.307C7.76921 444.178 4.48942 444.776 2.21364 447.033C-0.062137 449.29 -0.597606 452.676 0.674152 455.465L5.96198 450.153Z" fill="#E7F4FB"/>
<path d="M324.929 172.684C326.81 172.684 328.335 171.159 328.335 169.278C328.335 167.396 326.81 165.871 324.929 165.871C323.047 165.871 321.522 167.396 321.522 169.278C321.522 171.159 323.047 172.684 324.929 172.684Z" fill="#F1F8FF"/>
<path d="M1137.88 483.251C1135.85 483.251 1134.25 481.652 1134.25 479.616V459.987C1134.25 457.952 1135.85 456.352 1137.88 456.352C1143.7 456.352 1148.5 451.554 1148.5 445.738C1148.5 439.923 1143.7 435.124 1137.88 435.124C1132.07 435.124 1127.27 439.923 1127.27 445.738C1127.27 447.774 1125.67 449.373 1123.63 449.373C1121.6 449.373 1120 447.774 1120 445.738C1120 435.997 1128 428 1137.74 428C1147.48 428 1155.48 435.997 1155.48 445.738C1155.48 454.317 1149.37 461.441 1141.37 463.186V479.616C1141.37 481.652 1139.77 483.251 1137.88 483.251Z" fill="#E7F4FB"/>
<path d="M1141.95 492.556C1141.95 490.23 1140.06 488.34 1137.74 488.34C1135.41 488.34 1133.52 490.23 1133.52 492.556C1133.52 494.883 1135.41 496.773 1137.74 496.773C1140.06 496.627 1141.95 494.737 1141.95 492.556Z" fill="#E7F4FB"/>
<path d="M836.45 87.5073H810.154C805.373 107.551 789.926 111.045 780.916 111.413C779.077 111.413 778.341 109.206 779.628 108.103C789.558 100.379 785.697 87.5073 785.697 87.5073H776.502C760.872 87.5073 748 74.6353 748 59.0049V30.5024C748 14.8721 760.872 2 776.502 2H836.266C851.896 2 864.768 14.8721 864.768 30.5024V59.0049C864.768 74.6353 852.08 87.5073 836.45 87.5073Z" stroke="#F1F8FF" stroke-width="3" stroke-miterlimit="10"/>
<path d="M807.395 59.7406C805.924 59.7406 804.821 58.6373 804.821 57.1662V42.823C804.821 41.3519 805.924 40.2486 807.395 40.2486C811.624 40.2486 815.118 36.7548 815.118 32.5254C815.118 28.296 811.624 24.8021 807.395 24.8021C803.166 24.8021 799.672 28.296 799.672 32.5254C799.672 33.9965 798.568 35.0998 797.097 35.0998C795.626 35.0998 794.523 33.9965 794.523 32.5254C794.523 25.3538 800.407 19.6533 807.395 19.6533C814.567 19.6533 820.267 25.5377 820.267 32.5254C820.267 38.7775 815.854 43.9264 809.969 45.2136V57.1662C809.969 58.6373 808.866 59.7406 807.395 59.7406Z" fill="#F1F8FF"/>
<path d="M810.337 66.5441C810.337 64.8891 809.05 63.418 807.211 63.418C805.372 63.418 804.085 64.7052 804.085 66.5441C804.085 68.199 805.372 69.6701 807.211 69.6701C809.05 69.6701 810.337 68.199 810.337 66.5441Z" fill="#F1F8FF"/>
</svg>
